<svg viewBox="0 0 442.204724409 195.590551181" width="442.204724409pt" height="195.590551181pt" xmlns="http://www.w3.org/2000/svg" xmlns:xlink="http://www.w3.org/1999/xlink" xmlns:h5="http://www.w3.org/1999/xhtml"><path fill="#ffffff" fill-rule="nonzero" d="M 0 0v 195.590551181h 442.204724409v -195.590551181Z "/><g transform="translate(8.503937008 8.503937008)"><path fill="none" d="M 0 0h 210.92v 6.096h -210.92v -6.096Z "/><g transform="translate(-1.6e-8 -9.4e-8)"><g transform="matrix(1 0 0 -1 0 5.648)"><use xlink:href="#g433B0046FA1C163EF18CBCFEE7A0F0FA" x="0" y="0" fill="#2a6fb5" fill-rule="nonzero"/><use xlink:href="#gA777676A6A8947DAA49DA50ABAC1C6CC" x="5.368" y="0" fill="#2a6fb5" fill-rule="nonzero"/><use xlink:href="#g90B1229DAB8DBB19524315ABB76B3442" x="11.136" y="0" fill="#2a6fb5" fill-rule="nonzero"/><use xlink:href="#gA777676A6A8947DAA49DA50ABAC1C6CC" x="15.72" y="0" fill="#2a6fb5" fill-rule="nonzero"/><use xlink:href="#g433B0046FA1C163EF18CBCFEE7A0F0FA" x="21.184" y="0" fill="#2a6fb5" fill-rule="nonzero"/><use xlink:href="#gDB791FEC1C17365EE8897F3D98ED3918" x="26.696" y="0" fill="#2a6fb5" fill-rule="nonzero"/><use xlink:href="#g443BC67B01F5DE76CA1EF8B63D9C4B4F" x="29.04" y="0" fill="#2a6fb5" fill-rule="nonzero"/><use xlink:href="#gDB791FEC1C17365EE8897F3D98ED3918" x="34.152" y="0" fill="#2a6fb5" fill-rule="nonzero"/><use xlink:href="#g78E90C38C9790D34F6A28014FB7B1283" x="36.496" y="0" fill="#2a6fb5" fill-rule="nonzero"/><use xlink:href="#g28327A9A159109F78D835165A8DC53C4" x="42.2" y="0" fill="#2a6fb5" fill-rule="nonzero"/><use xlink:href="#g2BBF2A3D752FF1033A79F5A07EEEEE9" x="47.12" y="0" fill="#2a6fb5" fill-rule="nonzero"/><use xlink:href="#g88731AF6625D6E8E14350E33CF6BF4E6" x="50.888" y="0" fill="#2a6fb5" fill-rule="nonzero"/><use xlink:href="#g433B0046FA1C163EF18CBCFEE7A0F0FA" x="57.68" y="0" fill="#2a6fb5" fill-rule="nonzero"/><use xlink:href="#g1D095B0B7B30FD9535FDCB4083AC1817" x="62.968" y="0" fill="#2a6fb5" fill-rule="nonzero"/><use xlink:href="#gC5911DC3D2B9245788490645E75CBB3C" x="69.416" y="0" fill="#2a6fb5" fill-rule="nonzero"/><use xlink:href="#g90B1229DAB8DBB19524315ABB76B3442" x="75.032" y="0" fill="#2a6fb5" fill-rule="nonzero"/><use xlink:href="#g2BBF2A3D752FF1033A79F5A07EEEEE9" x="80" y="0" fill="#2a6fb5" fill-rule="nonzero"/><use xlink:href="#g28327A9A159109F78D835165A8DC53C4" x="84.488" y="0" fill="#2a6fb5" fill-rule="nonzero"/><use xlink:href="#g5A0DBCA52FCABFE214D4C880439F8480" x="89.408" y="0" fill="#2a6fb5" fill-rule="nonzero"/><use xlink:href="#gFD657BC5008D920C2F739094C753AFEA" x="96.96" y="0" fill="#2a6fb5" fill-rule="nonzero"/><use xlink:href="#gC5911DC3D2B9245788490645E75CBB3C" x="103.512" y="0" fill="#2a6fb5" fill-rule="nonzero"/><use xlink:href="#gA777676A6A8947DAA49DA50ABAC1C6CC" x="108.912" y="0" fill="#2a6fb5" fill-rule="nonzero"/><use xlink:href="#gE4E55E303856EE8ED8EEFE00C91BFA28" x="114.68" y="0" fill="#2a6fb5" fill-rule="nonzero"/><use xlink:href="#g443BC67B01F5DE76CA1EF8B63D9C4B4F" x="119.592" y="0" fill="#2a6fb5" fill-rule="nonzero"/><use xlink:href="#g28327A9A159109F78D835165A8DC53C4" x="124.704" y="0" fill="#2a6fb5" fill-rule="nonzero"/><use xlink:href="#gE4E55E303856EE8ED8EEFE00C91BFA28" x="129.624" y="0" fill="#2a6fb5" fill-rule="nonzero"/><use xlink:href="#gEA4C460CABFF46C77017A10B0B81B9A" x="134.416" y="0" fill="#2a6fb5" fill-rule="nonzero"/><use xlink:href="#g5CBF5795FF51E160CF83948B93021EAF" x="137.712" y="0" fill="#2a6fb5" fill-rule="nonzero"/><use xlink:href="#gA777676A6A8947DAA49DA50ABAC1C6CC" x="145.104" y="0" fill="#2a6fb5" fill-rule="nonzero"/><use xlink:href="#g78E90C38C9790D34F6A28014FB7B1283" x="150.216" y="0" fill="#2a6fb5" fill-rule="nonzero"/><use xlink:href="#g28327A9A159109F78D835165A8DC53C4" x="155.92" y="0" fill="#2a6fb5" fill-rule="nonzero"/><use xlink:href="#gE4E55E303856EE8ED8EEFE00C91BFA28" x="162.36" y="0" fill="#2a6fb5" fill-rule="nonzero"/><use xlink:href="#g28327A9A159109F78D835165A8DC53C4" x="167.464" y="0" fill="#2a6fb5" fill-rule="nonzero"/><use xlink:href="#g4762B0EC999CC61E3EAF35F629A965E8" x="172.24" y="0" fill="#2a6fb5" fill-rule="nonzero"/><use xlink:href="#g1D095B0B7B30FD9535FDCB4083AC1817" x="176.952" y="0" fill="#2a6fb5" fill-rule="nonzero"/><use xlink:href="#g7D2B16B7A1D5877E6101A0B214195C5E" x="183.4" y="0" fill="#2a6fb5" fill-rule="nonzero"/><use xlink:href="#gA777676A6A8947DAA49DA50ABAC1C6CC" x="189.304" y="0" fill="#2a6fb5" fill-rule="nonzero"/><use xlink:href="#g443BC67B01F5DE76CA1EF8B63D9C4B4F" x="194.44" y="0" fill="#2a6fb5" fill-rule="nonzero"/><use xlink:href="#g1D095B0B7B30FD9535FDCB4083AC1817" x="199.256" y="0" fill="#2a6fb5" fill-rule="nonzero"/><use xlink:href="#gE4E55E303856EE8ED8EEFE00C91BFA28" x="205.704" y="0" fill="#2a6fb5" fill-rule="nonzero"/></g></g><path fill="none" transform="translate(0 12.077343012)" d="M 0 0h 236.44140625v 7.453125h -236.44140625v -7.453125Z "/><g transform="translate(-4e-8 12.077342976)"><g transform="matrix(1 0 0 -1 0 5.8203125)"><use xlink:href="#g7D768694CB8437EA59654DF44C127349" x="0" y="0" fill="#5b6472" fill-rule="nonzero"/><use xlink:href="#g445516AE0444EE2DE0EB3B3E0C2256B0" x="7.76953125" y="0" fill="#5b6472" fill-rule="nonzero"/><use xlink:href="#gF71F9F2DF28018128C663111C10B4E29" x="11.9921875" y="0" fill="#5b6472" fill-rule="nonzero"/><use xlink:href="#gD7A63B168970AC07938ECFF2AEA98DC3" x="16.72265625" y="0" fill="#5b6472" fill-rule="nonzero"/><use xlink:href="#g787096ED14EFD4308E695C82D673D80D" x="21.453125" y="0" fill="#5b6472" fill-rule="nonzero"/><use xlink:href="#gAFC5A8B3E1378AE9124DD8C80E100C98" x="26.1796875" y="0" fill="#5b6472" fill-rule="nonzero"/><use xlink:href="#gD8110482750C68D211CB5255D7E91517" x="31.046875" y="0" fill="#5b6472" fill-rule="nonzero"/><use xlink:href="#gD3F74EC90279BAFBF0F2F56E1C1E049" x="35.9453125" y="0" fill="#5b6472" fill-rule="nonzero"/><use xlink:href="#g5DF8C3CFE5115BFEA008D116329764EF" x="38.95703125" y="0" fill="#5b6472" fill-rule="nonzero"/><use xlink:href="#g787096ED14EFD4308E695C82D673D80D" x="43.44921875" y="0" fill="#5b6472" fill-rule="nonzero"/><use xlink:href="#g52C35A770D904AA5C0E90317AD624B30" x="48.17578125" y="0" fill="#5b6472" fill-rule="nonzero"/><use xlink:href="#gF71F9F2DF28018128C663111C10B4E29" x="52.74609375" y="0" fill="#5b6472" fill-rule="nonzero"/><use xlink:href="#g5DF8C3CFE5115BFEA008D116329764EF" x="59.7265625" y="0" fill="#5b6472" fill-rule="nonzero"/><use xlink:href="#g12DA06A9E1184E378856FB009A6EF3C6" x="64.21875" y="0" fill="#5b6472" fill-rule="nonzero"/><use xlink:href="#g12DA06A9E1184E378856FB009A6EF3C6" x="69.1171875" y="0" fill="#5b6472" fill-rule="nonzero"/><use xlink:href="#g445516AE0444EE2DE0EB3B3E0C2256B0" x="74.015625" y="0" fill="#5b6472" fill-rule="nonzero"/><use xlink:href="#g5DF8C3CFE5115BFEA008D116329764EF" x="80.48828125" y="0" fill="#5b6472" fill-rule="nonzero"/><use xlink:href="#g787096ED14EFD4308E695C82D673D80D" x="87.23046875" y="0" fill="#5b6472" fill-rule="nonzero"/><use xlink:href="#g5DF8C3CFE5115BFEA008D116329764EF" x="91.95703125" y="0" fill="#5b6472" fill-rule="nonzero"/><use xlink:href="#gD3F74EC90279BAFBF0F2F56E1C1E049" x="96.44921875" y="0" fill="#5b6472" fill-rule="nonzero"/><use xlink:href="#gD3F74EC90279BAFBF0F2F56E1C1E049" x="99.5859375" y="0" fill="#5b6472" fill-rule="nonzero"/><use xlink:href="#g69CAF62E43035DF64E1CC6A8A31513AD" x="102.46484375" y="0" fill="#5b6472" fill-rule="nonzero"/><use xlink:href="#g3452BF2F17CEA502D79022914001D908" x="107.1171875" y="0" fill="#5b6472" fill-rule="nonzero"/><use xlink:href="#gAFC5A8B3E1378AE9124DD8C80E100C98" x="115.9140625" y="0" fill="#5b6472" fill-rule="nonzero"/><use xlink:href="#gD3F74EC90279BAFBF0F2F56E1C1E049" x="118.53125" y="0" fill="#5b6472" fill-rule="nonzero"/><use xlink:href="#g5DF8C3CFE5115BFEA008D116329764EF" x="121.54296875" y="0" fill="#5b6472" fill-rule="nonzero"/><use xlink:href="#g787096ED14EFD4308E695C82D673D80D" x="126.03515625" y="0" fill="#5b6472" fill-rule="nonzero"/><use xlink:href="#g445516AE0444EE2DE0EB3B3E0C2256B0" x="130.76171875" y="0" fill="#5b6472" fill-rule="nonzero"/><use xlink:href="#g38A68BFEC8579EEFC4BD0B8C80952C18" x="134.984375" y="0" fill="#5b6472" fill-rule="nonzero"/><use xlink:href="#gB75C56B328344F31B0144952C62FE3CE" x="141.9921875" y="0" fill="#5b6472" fill-rule="nonzero"/><use xlink:href="#g445516AE0444EE2DE0EB3B3E0C2256B0" x="143.9296875" y="0" fill="#5b6472" fill-rule="nonzero"/><use xlink:href="#g445516AE0444EE2DE0EB3B3E0C2256B0" x="148.15234375" y="0" fill="#5b6472" fill-rule="nonzero"/><use xlink:href="#gB75C56B328344F31B0144952C62FE3CE" x="152.375" y="0" fill="#5b6472" fill-rule="nonzero"/><use xlink:href="#g69CAF62E43035DF64E1CC6A8A31513AD" x="154.3125" y="0" fill="#5b6472" fill-rule="nonzero"/><use xlink:href="#g787096ED14EFD4308E695C82D673D80D" x="159.109375" y="0" fill="#5b6472" fill-rule="nonzero"/><use xlink:href="#g12DA06A9E1184E378856FB009A6EF3C6" x="166.0859375" y="0" fill="#5b6472" fill-rule="nonzero"/><use xlink:href="#gB75C56B328344F31B0144952C62FE3CE" x="170.984375" y="0" fill="#5b6472" fill-rule="nonzero"/><use xlink:href="#g1F7E95E38E0E30A1E4EBDF873711F12F" x="172.921875" y="0" fill="#5b6472" fill-rule="nonzero"/><use xlink:href="#gAFC5A8B3E1378AE9124DD8C80E100C98" x="180.0703125" y="0" fill="#5b6472" fill-rule="nonzero"/><use xlink:href="#g69CAF62E43035DF64E1CC6A8A31513AD" x="182.609375" y="0" fill="#5b6472" fill-rule="nonzero"/><use xlink:href="#gAFC5A8B3E1378AE9124DD8C80E100C98" x="189.65625" y="0" fill="#5b6472" fill-rule="nonzero"/><use xlink:href="#gF71F9F2DF28018128C663111C10B4E29" x="192.2734375" y="0" fill="#5b6472" fill-rule="nonzero"/><use xlink:href="#gE21994E7BCDC2C4B45B2250424F0AD37" x="197.00390625" y="0" fill="#5b6472" fill-rule="nonzero"/><use xlink:href="#gC6D92AB3AFE648EB2C582C586993EECD" x="203.91796875" y="0" fill="#5b6472" fill-rule="nonzero"/><use xlink:href="#gE21994E7BCDC2C4B45B2250424F0AD37" x="206.64453125" y="0" fill="#5b6472" fill-rule="nonzero"/><use xlink:href="#gE21994E7BCDC2C4B45B2250424F0AD37" x="211.30859375" y="0" fill="#5b6472" fill-rule="nonzero"/><use xlink:href="#g12DA06A9E1184E378856FB009A6EF3C6" x="215.97265625" y="0" fill="#5b6472" fill-rule="nonzero"/><use xlink:href="#g2C278E93036D06FAB9EBD70DABCF6086" x="220.87109375" y="0" fill="#5b6472" fill-rule="nonzero"/><use xlink:href="#gB75C56B328344F31B0144952C62FE3CE" x="222.80859375" y="0" fill="#5b6472" fill-rule="nonzero"/><use xlink:href="#g787096ED14EFD4308E695C82D673D80D" x="224.74609375" y="0" fill="#5b6472" fill-rule="nonzero"/><use xlink:href="#gE21994E7BCDC2C4B45B2250424F0AD37" x="229.47265625" y="0" fill="#5b6472" fill-rule="nonzero"/><use xlink:href="#gDEF6538C2A240F5DF9C7C6657A1063C9" x="234.13671875" y="0" fill="#5b6472" fill-rule="nonzero"/></g></g><path fill="none" stroke="#2a6fb5" stroke-width="2.2" stroke-linecap="butt" stroke-linejoin="miter" stroke-miterlimit="4" transform="translate(15.590551181 51.236976378)" d="M 0 0h 362.834645669"/><path fill="#2a6fb5" fill-rule="nonzero" transform="translate(193.88976378 48.118866142)" d="M 0 0m 3.118110236 0c -1.720523339 0 -3.118110236 1.397586898 -3.118110236 3.118110236c 0 1.720523339 1.397586898 3.118110236 3.118110236 3.118110236c 1.720523339 0 3.118110236 -1.397586898 3.118110236 -3.118110236c 0 -1.720523339 -1.397586898 -3.118110236 -3.118110236 -3.118110236Z "/><path fill="none" transform="translate(15.590551181 35.798893701)" d="M 0 0h 23.13v 8.199h -23.13v -8.199Z "/><g transform="translate(15.590551181 35.798893701)"><g transform="matrix(1 0 0 -1 0 6.354)"><use xlink:href="#gE42B39A73D718E73B3126099FBB91AD9" x="0" y="0" fill="#2a6fb5" fill-rule="nonzero"/><use xlink:href="#gDBEB6EDE3B9D282FF6767DB74AA2C36E" x="5.355" y="0" fill="#2a6fb5" fill-rule="nonzero"/><use xlink:href="#g2CAFB9811E7331340C56E20F6C83285C" x="10.539" y="0" fill="#2a6fb5" fill-rule="nonzero"/><use xlink:href="#g5BAB451FAB969220E764098B9779DE1D" x="14.427" y="0" fill="#2a6fb5" fill-rule="nonzero"/><use xlink:href="#gD5BE90EEE975DB6F9817B1948F3B8086" x="19.728" y="0" fill="#2a6fb5" fill-rule="nonzero"/></g></g><path fill="none" transform="translate(353.62119685 35.798893701)" d="M 0 0h 24.804v 8.199h -24.804v -8.199Z "/><g transform="translate(353.621196709 35.798893701)"><g transform="matrix(1 0 0 -1 0 6.354)"><use xlink:href="#gE42B39A73D718E73B3126099FBB91AD9" x="0" y="0" fill="#2a6fb5" fill-rule="nonzero"/><use xlink:href="#gDBEB6EDE3B9D282FF6767DB74AA2C36E" x="5.355" y="0" fill="#2a6fb5" fill-rule="nonzero"/><use xlink:href="#g2CAFB9811E7331340C56E20F6C83285C" x="10.539" y="0" fill="#2a6fb5" fill-rule="nonzero"/><use xlink:href="#g5BAB451FAB969220E764098B9779DE1D" x="14.427" y="0" fill="#2a6fb5" fill-rule="nonzero"/><use xlink:href="#gE79D13C4C16A8D320ADB86E55BFA4F99" x="19.728" y="0" fill="#2a6fb5" fill-rule="nonzero"/></g></g><path fill="none" transform="translate(285.133304626 58.802121555)" d="M 0 0h 61.859375v 7.546875h -61.859375v -7.546875Z "/><g transform="translate(285.133304551 58.802121543)"><g transform="matrix(1 0 0 -1 0 5.8203125)"><use xlink:href="#gAFC5A8B3E1378AE9124DD8C80E100C98" x="0" y="0" fill="#5b6472" fill-rule="nonzero"/><use xlink:href="#gF71F9F2DF28018128C663111C10B4E29" x="2.6171875" y="0" fill="#5b6472" fill-rule="nonzero"/><use xlink:href="#gD3F74EC90279BAFBF0F2F56E1C1E049" x="7.34765625" y="0" fill="#5b6472" fill-rule="nonzero"/><use xlink:href="#g69CAF62E43035DF64E1CC6A8A31513AD" x="10.2265625" y="0" fill="#5b6472" fill-rule="nonzero"/><use xlink:href="#gD7A63B168970AC07938ECFF2AEA98DC3" x="15.0234375" y="0" fill="#5b6472" fill-rule="nonzero"/><use xlink:href="#g4685935FB1A93C86806F8337515A8854" x="19.75390625" y="0" fill="#5b6472" fill-rule="nonzero"/><use xlink:href="#gF71F9F2DF28018128C663111C10B4E29" x="24.66015625" y="0" fill="#5b6472" fill-rule="nonzero"/><use xlink:href="#gC6D92AB3AFE648EB2C582C586993EECD" x="31.640625" y="0" fill="#5b6472" fill-rule="nonzero"/><use xlink:href="#gE21994E7BCDC2C4B45B2250424F0AD37" x="34.3671875" y="0" fill="#5b6472" fill-rule="nonzero"/><use xlink:href="#gE21994E7BCDC2C4B45B2250424F0AD37" x="39.03125" y="0" fill="#5b6472" fill-rule="nonzero"/><use xlink:href="#g12DA06A9E1184E378856FB009A6EF3C6" x="43.6953125" y="0" fill="#5b6472" fill-rule="nonzero"/><use xlink:href="#g2C278E93036D06FAB9EBD70DABCF6086" x="48.59375" y="0" fill="#5b6472" fill-rule="nonzero"/><use xlink:href="#gB75C56B328344F31B0144952C62FE3CE" x="50.53125" y="0" fill="#5b6472" fill-rule="nonzero"/><use xlink:href="#g787096ED14EFD4308E695C82D673D80D" x="52.46875" y="0" fill="#5b6472" fill-rule="nonzero"/><use xlink:href="#gE21994E7BCDC2C4B45B2250424F0AD37" x="57.1953125" y="0" fill="#5b6472" fill-rule="nonzero"/></g></g><path fill="none" stroke="#3979ba" stroke-width="1.6" stroke-linecap="butt" stroke-linejoin="miter" stroke-miterlimit="4" transform="translate(197.007874016 51.236976378)" d="M 0 0v 17.291338583"/><path fill="none" stroke="#3979ba" stroke-width="2" stroke-linecap="butt" stroke-linejoin="miter" stroke-miterlimit="4" transform="translate(184.251968504 68.528314961)" d="M 0 0h 25.511811024"/><path fill="none" stroke="#3979ba" stroke-width="2" stroke-linecap="butt" stroke-linejoin="miter" stroke-miterlimit="4" transform="translate(184.251968504 75.331464567)" d="M 0 0h 25.511811024"/><path fill="none" transform="translate(216.850393701 67.215509764)" d="M 0 0h 8.61696v 9.42876h -8.61696v -9.42876Z "/><g transform="translate(216.850393701 67.215509764)"><g transform="matrix(1 0 0 -1 0 6.201)"><use xlink:href="#g2480BEF54D6C408E5BDED6C3DAA3C72A" x="0" y="0" fill="#3979ba" fill-rule="nonzero"/></g><g transform="matrix(1 0 0 -1 4.995 9.351)"><use xlink:href="#g63DE33BE731DB4EDC210ADBA594A5C1" x="0" y="0" fill="#3979ba" fill-rule="nonzero"/></g></g><path fill="none" stroke="#1f5994" stroke-width="3" stroke-linecap="butt" stroke-linejoin="miter" stroke-miterlimit="4" transform="translate(197.007874016 75.331464567)" d="M 0 0v 52.440944882"/><path fill="none" transform="translate(216.850393701 96.989174028)" d="M 0 0h 66.901523437v 7.708203125h -66.901523437v -7.708203125Z "/><g transform="translate(216.850393656 96.989173984)"><g transform="matrix(1 0 0 -1 0 7.158203125)"><use xlink:href="#g4DAC3F1FC283D7BC71B723D565EB7830" x="0" y="0" fill="#1f5994" fill-rule="nonzero"/></g><g transform="matrix(1 0 0 -1 5.561523438 7.158203125)"><use xlink:href="#g6FE517F4A286FD5C2CCDF40F7556DA68" x="1.9" y="0" fill="#1f5994" fill-rule="nonzero"/><use xlink:href="#gC3F77B26CC03E68E47A245939E928777" x="7.64" y="0" fill="#1f5994" fill-rule="nonzero"/></g><g transform="matrix(1 0 0 -1 21.191523438 7.158203125)"><use xlink:href="#gBF7FDF06787DED2E59FF5E319C182CA3" x="0" y="0" fill="#1f5994" fill-rule="nonzero"/><use xlink:href="#g6E40E45EC46BCD15D7662F146E1ED4A0" x="4.13" y="0" fill="#1f5994" fill-rule="nonzero"/><use xlink:href="#g3E0662E8FCFBA03006F3509641C62D92" x="9.61" y="0" fill="#1f5994" fill-rule="nonzero"/><use xlink:href="#g6E9D12C67FF62FBD5C44C9CF47FC0290" x="14.19" y="0" fill="#1f5994" fill-rule="nonzero"/><use xlink:href="#gF4CEADB9C1A957C12DE83E45BE14A969" x="19.95" y="0" fill="#1f5994" fill-rule="nonzero"/><use xlink:href="#g4C6A0F1FD2A33AE2B0E50C3AADA134D1" x="25.67" y="0" fill="#1f5994" fill-rule="nonzero"/><use xlink:href="#g5599A8B46FC17EDE5ACC5E49FC67C728" x="31.62" y="0" fill="#1f5994" fill-rule="nonzero"/><use xlink:href="#g6E9D12C67FF62FBD5C44C9CF47FC0290" x="35.51" y="0" fill="#1f5994" fill-rule="nonzero"/><use xlink:href="#gBF7FDF06787DED2E59FF5E319C182CA3" x="41.27" y="0" fill="#1f5994" fill-rule="nonzero"/></g></g><path fill="none" transform="translate(216.850393701 109.022224902)" d="M 0 0h 112.98828125v 7.453125h -112.98828125v -7.453125Z "/><g transform="translate(216.850393664 109.022224866)"><g transform="matrix(1 0 0 -1 0 5.8203125)"><use xlink:href="#g52C35A770D904AA5C0E90317AD624B30" x="0" y="0" fill="#5b6472" fill-rule="nonzero"/><use xlink:href="#g69CAF62E43035DF64E1CC6A8A31513AD" x="4.5703125" y="0" fill="#5b6472" fill-rule="nonzero"/><use xlink:href="#gD7A63B168970AC07938ECFF2AEA98DC3" x="9.3671875" y="0" fill="#5b6472" fill-rule="nonzero"/><use xlink:href="#g1F7E95E38E0E30A1E4EBDF873711F12F" x="14.09765625" y="0" fill="#5b6472" fill-rule="nonzero"/><use xlink:href="#g2C278E93036D06FAB9EBD70DABCF6086" x="18.99609375" y="0" fill="#5b6472" fill-rule="nonzero"/><use xlink:href="#gE21994E7BCDC2C4B45B2250424F0AD37" x="20.93359375" y="0" fill="#5b6472" fill-rule="nonzero"/><use xlink:href="#g12DA06A9E1184E378856FB009A6EF3C6" x="25.59765625" y="0" fill="#5b6472" fill-rule="nonzero"/><use xlink:href="#gE21994E7BCDC2C4B45B2250424F0AD37" x="32.74609375" y="0" fill="#5b6472" fill-rule="nonzero"/><use xlink:href="#g787096ED14EFD4308E695C82D673D80D" x="37.41015625" y="0" fill="#5b6472" fill-rule="nonzero"/><use xlink:href="#g12DA06A9E1184E378856FB009A6EF3C6" x="42.13671875" y="0" fill="#5b6472" fill-rule="nonzero"/><use xlink:href="#g787096ED14EFD4308E695C82D673D80D" x="49.28515625" y="0" fill="#5b6472" fill-rule="nonzero"/><use xlink:href="#gE21994E7BCDC2C4B45B2250424F0AD37" x="54.01171875" y="0" fill="#5b6472" fill-rule="nonzero"/><use xlink:href="#g5DF8C3CFE5115BFEA008D116329764EF" x="58.75390625" y="0" fill="#5b6472" fill-rule="nonzero"/><use xlink:href="#gD3F74EC90279BAFBF0F2F56E1C1E049" x="63.24609375" y="0" fill="#5b6472" fill-rule="nonzero"/><use xlink:href="#gAFC5A8B3E1378AE9124DD8C80E100C98" x="68.5078125" y="0" fill="#5b6472" fill-rule="nonzero"/><use xlink:href="#gF71F9F2DF28018128C663111C10B4E29" x="71.125" y="0" fill="#5b6472" fill-rule="nonzero"/><use xlink:href="#gE21994E7BCDC2C4B45B2250424F0AD37" x="75.85546875" y="0" fill="#5b6472" fill-rule="nonzero"/><use xlink:href="#gC6D92AB3AFE648EB2C582C586993EECD" x="82.76953125" y="0" fill="#5b6472" fill-rule="nonzero"/><use xlink:href="#gE21994E7BCDC2C4B45B2250424F0AD37" x="85.49609375" y="0" fill="#5b6472" fill-rule="nonzero"/><use xlink:href="#gE21994E7BCDC2C4B45B2250424F0AD37" x="90.16015625" y="0" fill="#5b6472" fill-rule="nonzero"/><use xlink:href="#g12DA06A9E1184E378856FB009A6EF3C6" x="94.82421875" y="0" fill="#5b6472" fill-rule="nonzero"/><use xlink:href="#g2C278E93036D06FAB9EBD70DABCF6086" x="99.72265625" y="0" fill="#5b6472" fill-rule="nonzero"/><use xlink:href="#gB75C56B328344F31B0144952C62FE3CE" x="101.66015625" y="0" fill="#5b6472" fill-rule="nonzero"/><use xlink:href="#g787096ED14EFD4308E695C82D673D80D" x="103.59765625" y="0" fill="#5b6472" fill-rule="nonzero"/><use xlink:href="#gE21994E7BCDC2C4B45B2250424F0AD37" x="108.32421875" y="0" fill="#5b6472" fill-rule="nonzero"/></g></g><path fill="none" stroke="#5b6472" stroke-width="1.6" stroke-linecap="butt" stroke-linejoin="miter" stroke-miterlimit="4" transform="translate(197.007874016 127.772409449)" d="M 0 0v 7.086614173"/><path fill="none" stroke="#5b6472" stroke-width="1.3" stroke-linecap="butt" stroke-linejoin="miter" stroke-miterlimit="4" transform="translate(181.417322835 134.859023622)" d="M 0 0h 31.181102362"/><path fill="none" stroke="#5b6472" stroke-width="1.3" stroke-linecap="butt" stroke-linejoin="miter" stroke-miterlimit="4" transform="translate(186.236220472 138.544062992)" d="M 0 0h 21.543307087"/><path fill="none" stroke="#5b6472" stroke-width="1.3" stroke-linecap="butt" stroke-linejoin="miter" stroke-miterlimit="4" transform="translate(191.338582677 142.229102362)" d="M 0 0h 11.338582677"/><path fill="none" transform="translate(150.582740157 132.553952756)" d="M 0 0h 19.496v 5.744h -19.496v -5.744Z "/><g transform="translate(150.582740094 132.553952693)"><g transform="matrix(1 0 0 -1 0 5.648)"><use xlink:href="#gB4ED3957CB20E1F8594F42E130F18C13" x="0" y="0" fill="#5b6472" fill-rule="nonzero"/><use xlink:href="#g23C175B8F2A8B34DB816B44EC29FDECF" x="3.664" y="0" fill="#5b6472" fill-rule="nonzero"/><use xlink:href="#gF46AA4ED2CC389306819851047BAC151" x="8.24" y="0" fill="#5b6472" fill-rule="nonzero"/><use xlink:href="#gAF4AAF1F1363981221589537A6AE81AF" x="12.848" y="0" fill="#5b6472" fill-rule="nonzero"/><use xlink:href="#g32EE2AB677B5B70F6362CEE545A5A62C" x="16.304" y="0" fill="#5b6472" fill-rule="nonzero"/></g></g></g><defs><symbol id="g433B0046FA1C163EF18CBCFEE7A0F0FA" overflow="visible"><path d="M 0 0m 3.224 -0.088q -0.64 0 -1.18 0.22q -0.54 0.22 -0.94 0.616q -0.4 0.396 -0.624 0.928q -0.224 0.532 -0.224 1.156q 0 0.616 0.224 1.144q 0.224 0.528 0.624 0.924q 0.4 0.396 0.936 0.616q 0.536 0.22 1.176 0.22q 0.672 0 1.196 -0.216q 0.524 -0.216 0.916 -0.592l -0.84 -0.848q -0.224 0.24 -0.54 0.376q -0.316 0.136 -0.732 0.136q -0.496 0 -0.872 -0.22q -0.376 -0.22 -0.588 -0.616q -0.212 -0.396 -0.212 -0.924q 0 -0.536 0.212 -0.936q 0.212 -0.4 0.588 -0.62q 0.376 -0.22 0.872 -0.22q 0.432 0 0.752 0.136q 0.32 0.136 0.552 0.376l 0.848 -0.848q -0.408 -0.376 -0.932 -0.592q -0.524 -0.216 -1.212 -0.216Z "/></symbol><symbol id="gA777676A6A8947DAA49DA50ABAC1C6CC" overflow="visible"><path d="M 0 0m 0.12 0l 2.24 5.648h 1.136l 2.216 -5.648h -1.328l -0.376 1.024h -2.208l -0.376 -1.024h -1.304Z m 2.056 2.048h 1.464l -0.728 2.016l -0.736 -2.016Z "/></symbol><symbol id="g90B1229DAB8DBB19524315ABB76B3442" overflow="visible"><path d="M 0 0m 0.544 0v 5.648h 2.36q 0.536 0 0.968 -0.22q 0.432 -0.22 0.684 -0.62q 0.252 -0.4 0.252 -0.952q 0 -0.56 -0.252 -0.96q -0.252 -0.4 -0.684 -0.62q -0.432 -0.22 -0.968 -0.22h -1.104v -2.056h -1.256Z m 2.176 4.672h -0.92v -1.64h 0.92q 0.352 0 0.596 0.216q 0.244 0.216 0.244 0.608q 0 0.384 -0.244 0.6q -0.244 0.216 -0.596 0.216Z "/></symbol><symbol id="gDB791FEC1C17365EE8897F3D98ED3918" overflow="visible"><path d="M 0 0m 0.544 0v 5.648h 1.256v -5.648h -1.256Z "/></symbol><symbol id="g443BC67B01F5DE76CA1EF8B63D9C4B4F" overflow="visible"><path d="M 0 0m 1.928 0v 4.552h -1.768v 1.096h 4.792v -1.096h -1.768v -4.552h -1.256Z "/></symbol><symbol id="g78E90C38C9790D34F6A28014FB7B1283" overflow="visible"><path d="M 0 0m 2.304 0l -2.176 5.648h 1.344l 1.384 -3.808l 1.4 3.808h 1.328l -2.2 -5.648h -1.08Z "/></symbol><symbol id="g28327A9A159109F78D835165A8DC53C4" overflow="visible"><path d="M 0 0m 0.544 0v 5.648h 4.016v -1.08h -2.76v -1.16h 2.52v -1.048h -2.52v -1.272h 2.8v -1.088h -4.056Z "/></symbol><symbol id="g2BBF2A3D752FF1033A79F5A07EEEEE9" overflow="visible"><path d="M 0 0m 0.544 0v 5.648h 1.256v -4.544h 2.504v -1.104h -3.76Z "/></symbol><symbol id="g88731AF6625D6E8E14350E33CF6BF4E6" overflow="visible"><path d="M 0 0m 2.128 0v 2.352l -2.024 3.296h 1.456l 1.2 -2.064l 1.208 2.064h 1.424l -2.008 -3.24v -2.408h -1.256Z "/></symbol><symbol id="g1D095B0B7B30FD9535FDCB4083AC1817" overflow="visible"><path d="M 0 0m 3.24 -0.096q -0.64 0 -1.18 0.224q -0.54 0.224 -0.948 0.624q -0.408 0.4 -0.632 0.932q -0.224 0.532 -0.224 1.148q 0 0.616 0.224 1.148q 0.224 0.532 0.624 0.928q 0.4 0.396 0.94 0.616q 0.54 0.22 1.18 0.22q 0.632 0 1.172 -0.22q 0.54 -0.22 0.944 -0.616q 0.404 -0.396 0.628 -0.928q 0.224 -0.532 0.224 -1.156q 0 -0.616 -0.224 -1.148q -0.224 -0.532 -0.624 -0.928q -0.4 -0.396 -0.94 -0.62q -0.54 -0.224 -1.164 -0.224Z m -0.016 1.144q 0.504 0 0.88 0.224q 0.376 0.224 0.588 0.624q 0.212 0.4 0.212 0.936q 0 0.528 -0.212 0.928q -0.212 0.4 -0.592 0.62q -0.38 0.22 -0.876 0.22q -0.504 0 -0.884 -0.22q -0.38 -0.22 -0.588 -0.62q -0.208 -0.4 -0.208 -0.928q 0 -0.536 0.208 -0.936q 0.208 -0.4 0.588 -0.624q 0.38 -0.224 0.884 -0.224Z "/></symbol><symbol id="gC5911DC3D2B9245788490645E75CBB3C" overflow="visible"><path d="M 0 0m 2.816 -0.088q -0.696 0 -1.228 0.3q -0.532 0.3 -0.832 0.82q -0.3 0.52 -0.3 1.192v 3.424h 1.264v -3.496q 0 -0.512 0.316 -0.804q 0.316 -0.292 0.78 -0.292q 0.472 0 0.776 0.292q 0.304 0.292 0.304 0.796v 3.504h 1.264v -3.432q 0 -0.672 -0.296 -1.192q -0.296 -0.52 -0.824 -0.816q -0.528 -0.296 -1.224 -0.296Z "/></symbol><symbol id="g5A0DBCA52FCABFE214D4C880439F8480" overflow="visible"><path d="M 0 0m 0.544 0v 5.648h 2.264q 0.632 0 1.176 -0.208q 0.544 -0.208 0.944 -0.584q 0.4 -0.376 0.624 -0.892q 0.224 -0.516 0.224 -1.14q 0 -0.616 -0.224 -1.136q -0.224 -0.52 -0.624 -0.896q -0.4 -0.376 -0.936 -0.584q -0.536 -0.208 -1.168 -0.208h -2.28Z m 2.248 4.552h -0.992v -3.448h 0.992q 0.768 0 1.232 0.456q 0.464 0.456 0.464 1.272q 0 0.808 -0.468 1.264q -0.468 0.456 -1.228 0.456Z "/></symbol><symbol id="gFD657BC5008D920C2F739094C753AFEA" overflow="visible"><path d="M 0 0m 3.24 -0.096q -0.632 0 -1.176 0.224q -0.544 0.224 -0.948 0.624q -0.404 0.4 -0.632 0.932q -0.228 0.532 -0.228 1.148q 0 0.616 0.224 1.148q 0.224 0.532 0.628 0.928q 0.404 0.396 0.944 0.616q 0.54 0.22 1.172 0.22q 0.632 0 1.172 -0.22q 0.54 -0.22 0.944 -0.616q 0.404 -0.396 0.632 -0.928q 0.228 -0.532 0.228 -1.156q 0 -0.488 -0.144 -0.924q -0.144 -0.436 -0.4 -0.796l 0.832 -0.824l -0.728 -0.728l -0.848 0.84q -0.352 -0.232 -0.776 -0.36q -0.424 -0.128 -0.896 -0.128Z m -0.016 1.144q 0.464 0 0.832 0.2l -0.936 0.944l 0.728 0.728l 0.904 -0.912q 0.16 0.368 0.16 0.824q 0 0.528 -0.212 0.928q -0.212 0.4 -0.592 0.62q -0.38 0.22 -0.884 0.22q -0.504 0 -0.88 -0.22q -0.376 -0.22 -0.588 -0.62q -0.212 -0.4 -0.212 -0.928q 0 -0.536 0.212 -0.936q 0.212 -0.4 0.588 -0.624q 0.376 -0.224 0.88 -0.224Z "/></symbol><symbol id="gE4E55E303856EE8ED8EEFE00C91BFA28" overflow="visible"><path d="M 0 0m 0.544 0v 5.648h 2.304q 0.56 0 0.984 -0.212q 0.424 -0.212 0.664 -0.588q 0.24 -0.376 0.24 -0.864q 0 -0.64 -0.392 -1.068q -0.392 -0.428 -1.048 -0.548l 1.808 -2.368h -1.488l -1.68 2.328h -0.136v -2.328h -1.256Z m 2.16 4.672h -0.904v -1.416h 0.896q 0.376 0 0.58 0.192q 0.204 0.192 0.204 0.52q 0 0.304 -0.204 0.504q -0.204 0.2 -0.572 0.2Z "/></symbol><symbol id="gEA4C460CABFF46C77017A10B0B81B9A" overflow="visible"><path d="M 0 0m 0.432 1.504v 1.072h 2.832v -1.072h -2.832Z "/></symbol><symbol id="g5CBF5795FF51E160CF83948B93021EAF" overflow="visible"><path d="M 0 0m 1.952 0l -1.816 5.648h 1.248l 1.08 -3.536l 1.056 3.536h 0.984l 1.056 -3.544l 1.08 3.544h 1.24l -1.816 -5.648h -0.984l -1.072 3.568l -1.072 -3.568h -0.984Z "/></symbol><symbol id="g4762B0EC999CC61E3EAF35F629A965E8" overflow="visible"><path d="M 0 0m 2.24 -0.088q -0.696 0 -1.2 0.224q -0.504 0.224 -0.912 0.696l 0.816 0.808q 0.272 -0.32 0.6 -0.488q 0.328 -0.168 0.776 -0.168q 0.4 0 0.62 0.144q 0.22 0.144 0.22 0.4q 0 0.264 -0.192 0.424q -0.192 0.16 -0.492 0.268q -0.3 0.108 -0.64 0.232q -0.34 0.124 -0.644 0.312q -0.304 0.188 -0.492 0.5q -0.188 0.312 -0.188 0.808q 0 0.52 0.252 0.892q 0.252 0.372 0.7 0.572q 0.448 0.2 1.032 0.2q 0.592 0 1.084 -0.212q 0.492 -0.212 0.812 -0.564l -0.816 -0.808q -0.256 0.264 -0.516 0.392q -0.26 0.128 -0.588 0.128q -0.336 0 -0.524 -0.124q -0.188 -0.124 -0.188 -0.356q 0 -0.248 0.188 -0.392q 0.188 -0.144 0.492 -0.252q 0.304 -0.108 0.644 -0.232q 0.34 -0.124 0.64 -0.32q 0.3 -0.196 0.492 -0.52q 0.192 -0.324 0.192 -0.836q 0 -0.816 -0.576 -1.272q -0.576 -0.456 -1.592 -0.456Z "/></symbol><symbol id="g7D2B16B7A1D5877E6101A0B214195C5E" overflow="visible"><path d="M 0 0m 0.544 0v 5.648h 0.88l 2.68 -3.432v 3.432h 1.256v -5.648h -0.92l -2.64 3.384v -3.384h -1.256Z "/></symbol><symbol id="g7D768694CB8437EA59654DF44C127349" overflow="visible"><path d="M 0 0m 0.203125 0l 2.11328125 5.8203125h 0.859375l 2.140625 -5.8203125h -0.78125l -1.234375 3.453125q -0.11328125 0.3203125 -0.263671875 0.798828125q -0.150390625 0.478515625 -0.365234375 1.220703125h 0.140625q -0.2109375 -0.75 -0.365234375 -1.236328125q -0.154296875 -0.486328125 -0.255859375 -0.783203125l -1.19921875 -3.453125h -0.7890625Z m 1.0625 1.625v 0.6484375h 2.98828125v -0.6484375h -2.98828125Z "/></symbol><symbol id="g445516AE0444EE2DE0EB3B3E0C2256B0" overflow="visible"><path d="M 0 0m 2.1015625 -0.09375q -0.44921875 0 -0.798828125 0.130859375q -0.349609375 0.130859375 -0.576171875 0.388671875q -0.2265625 0.2578125 -0.3046875 0.6328125l 0.66796875 0.16015625q 0.09375 -0.359375 0.353515625 -0.52734375q 0.259765625 -0.16796875 0.650390625 -0.16796875q 0.45703125 0 0.728515625 0.1953125q 0.271484375 0.1953125 0.271484375 0.46484375q 0 0.2265625 -0.158203125 0.376953125q -0.158203125 0.150390625 -0.482421875 0.224609375l -0.7265625 0.171875q -0.59375 0.140625 -0.8828125 0.435546875q -0.2890625 0.294921875 -0.2890625 0.755859375q 0 0.375 0.2109375 0.662109375q 0.2109375 0.287109375 0.576171875 0.44921875q 0.365234375 0.162109375 0.830078125 0.162109375q 0.44921875 0 0.763671875 -0.134765625q 0.314453125 -0.134765625 0.51171875 -0.37109375q 0.197265625 -0.236328125 0.294921875 -0.544921875l -0.63671875 -0.1640625q -0.08984375 0.234375 -0.298828125 0.42578125q -0.208984375 0.19140625 -0.630859375 0.19140625q -0.390625 0 -0.650390625 -0.1796875q -0.259765625 -0.1796875 -0.259765625 -0.453125q 0 -0.2421875 0.17578125 -0.388671875q 0.17578125 -0.146484375 0.55859375 -0.236328125l 0.66015625 -0.15625q 0.59375 -0.140625 0.87890625 -0.435546875q 0.28515625 -0.294921875 0.28515625 -0.744140625q 0 -0.3828125 -0.216796875 -0.681640625q -0.216796875 -0.298828125 -0.60546875 -0.470703125q -0.388671875 -0.171875 -0.900390625 -0.171875Z "/></symbol><symbol id="gF71F9F2DF28018128C663111C10B4E29" overflow="visible"><path d="M 0 0m 1.3203125 2.6171875v -2.6171875h -0.703125v 5.8203125h 0.703125v -2.51171875h -0.12109375q 0.19921875 0.60546875 0.568359375 0.859375q 0.369140625 0.25390625 0.865234375 0.25390625q 0.44140625 0 0.775390625 -0.181640625q 0.333984375 -0.181640625 0.51953125 -0.546875q 0.185546875 -0.365234375 0.185546875 -0.919921875v -2.7734375h -0.70703125v 2.71484375q 0 0.50390625 -0.263671875 0.7890625q -0.263671875 0.28515625 -0.720703125 0.28515625q -0.3125 0 -0.5625 -0.13671875q -0.25 -0.13671875 -0.39453125 -0.3984375q -0.14453125 -0.26171875 -0.14453125 -0.63671875Z "/></symbol><symbol id="gD7A63B168970AC07938ECFF2AEA98DC3" overflow="visible"><path d="M 0 0m 2.09765625 -0.0546875q -0.44140625 0 -0.775390625 0.181640625q -0.333984375 0.181640625 -0.51953125 0.548828125q -0.185546875 0.3671875 -0.185546875 0.91796875v 2.7734375h 0.703125v -2.71484375q 0 -0.50390625 0.265625 -0.7890625q 0.265625 -0.28515625 0.72265625 -0.28515625q 0.3125 0 0.560546875 0.13671875q 0.248046875 0.13671875 0.392578125 0.400390625q 0.14453125 0.263671875 0.14453125 0.634765625v 2.6171875h 0.70703125v -4.3671875h -0.6796875v 1.05859375h 0.09375q -0.203125 -0.61328125 -0.576171875 -0.86328125q -0.373046875 -0.25 -0.853515625 -0.25Z "/></symbol><symbol id="g787096ED14EFD4308E695C82D673D80D" overflow="visible"><path d="M 0 0m 1.3203125 2.6171875v -2.6171875h -0.703125v 4.3671875h 0.67578125l 0.00390625 -1.05859375h -0.09765625q 0.19921875 0.60546875 0.568359375 0.859375q 0.369140625 0.25390625 0.865234375 0.25390625q 0.44140625 0 0.7734375 -0.181640625q 0.33203125 -0.181640625 0.517578125 -0.546875q 0.185546875 -0.365234375 0.185546875 -0.919921875v -2.7734375h -0.703125v 2.71484375q 0 0.50390625 -0.263671875 0.7890625q -0.263671875 0.28515625 -0.720703125 0.28515625q -0.3125 0 -0.5625 -0.13671875q -0.25 -0.13671875 -0.39453125 -0.3984375q -0.14453125 -0.26171875 -0.14453125 -0.63671875Z "/></symbol><symbol id="gAFC5A8B3E1378AE9124DD8C80E100C98" overflow="visible"><path d="M 0 0m 2.3359375 4.3671875v -0.6015625h -2.2578125v 0.6015625h 2.2578125Z m -1.6015625 1.0390625h 0.703125v -4.2734375q 0 -0.29296875 0.119140625 -0.427734375q 0.119140625 -0.134765625 0.396484375 -0.134765625q 0.06640625 0 0.169921875 0.015625q 0.103515625 0.015625 0.189453125 0.03125l 0.14453125 -0.59375q -0.109375 -0.0390625 -0.248046875 -0.05859375q -0.138671875 -0.01953125 -0.275390625 -0.01953125q -0.56640625 0 -0.8828125 0.298828125q -0.31640625 0.298828125 -0.31640625 0.833984375v 4.328125Z "/></symbol><symbol id="gD8110482750C68D211CB5255D7E91517" overflow="visible"><path d="M 0 0m 2.64453125 -0.09375q -0.4140625 0 -0.66796875 0.142578125q -0.25390625 0.142578125 -0.390625 0.32421875q -0.13671875 0.181640625 -0.2109375 0.302734375h -0.078125v -0.67578125h -0.6796875v 5.8203125h 0.703125v -2.15234375h 0.0546875q 0.07421875 0.1171875 0.20703125 0.294921875q 0.1328125 0.177734375 0.3828125 0.318359375q 0.25 0.140625 0.67578125 0.140625q 0.546875 0 0.962890625 -0.2734375q 0.416015625 -0.2734375 0.65234375 -0.779296875q 0.236328125 -0.505859375 0.236328125 -1.197265625q 0 -0.6953125 -0.234375 -1.203125q -0.234375 -0.5078125 -0.650390625 -0.78515625q -0.416015625 -0.27734375 -0.962890625 -0.27734375Z m -0.10546875 0.62890625q 0.41015625 0 0.685546875 0.220703125q 0.275390625 0.220703125 0.4140625 0.59375q 0.138671875 0.373046875 0.138671875 0.830078125q 0 0.453125 -0.13671875 0.818359375q -0.13671875 0.365234375 -0.412109375 0.580078125q -0.275390625 0.21484375 -0.689453125 0.21484375q -0.40234375 0 -0.67578125 -0.203125q -0.2734375 -0.203125 -0.412109375 -0.564453125q -0.138671875 -0.361328125 -0.138671875 -0.845703125q 0 -0.484375 0.140625 -0.85546875q 0.140625 -0.37109375 0.416015625 -0.580078125q 0.275390625 -0.208984375 0.669921875 -0.208984375Z "/></symbol><symbol id="gD3F74EC90279BAFBF0F2F56E1C1E049" overflow="visible"><path d="M 0 0m 0.6171875 0v 4.3671875h 0.6796875v -0.671875h 0.046875q 0.12109375 0.33203125 0.431640625 0.533203125q 0.310546875 0.201171875 0.701171875 0.201171875q 0.078125 0 0.185546875 -0.00390625q 0.107421875 -0.00390625 0.169921875 -0.0078125v -0.70703125q -0.03125 0.0078125 -0.15625 0.0234375q -0.125 0.015625 -0.265625 0.015625q -0.3125 0 -0.560546875 -0.130859375q -0.248046875 -0.130859375 -0.388671875 -0.359375q -0.140625 -0.228515625 -0.140625 -0.525390625v -2.734375h -0.703125Z "/></symbol><symbol id="g5DF8C3CFE5115BFEA008D116329764EF" overflow="visible"><path d="M 0 0m 1.83984375 -0.1015625q -0.4140625 0 -0.751953125 0.15625q -0.337890625 0.15625 -0.537109375 0.45703125q -0.19921875 0.30078125 -0.19921875 0.73046875q 0 0.375 0.1484375 0.609375q 0.1484375 0.234375 0.396484375 0.369140625q 0.248046875 0.134765625 0.548828125 0.201171875q 0.30078125 0.06640625 0.60546875 0.10546875q 0.390625 0.05078125 0.63671875 0.078125q 0.24609375 0.02734375 0.365234375 0.09375q 0.119140625 0.06640625 0.119140625 0.2265625v 0.0234375q 0 0.2734375 -0.1015625 0.462890625q -0.1015625 0.189453125 -0.3046875 0.291015625q -0.203125 0.1015625 -0.5078125 0.1015625q -0.3125 0 -0.53515625 -0.09765625q -0.22265625 -0.09765625 -0.361328125 -0.244140625q -0.138671875 -0.146484375 -0.208984375 -0.298828125l -0.67578125 0.22265625q 0.16796875 0.3984375 0.453125 0.623046875q 0.28515625 0.224609375 0.62890625 0.318359375q 0.34375 0.09375 0.6796875 0.09375q 0.21875 0 0.498046875 -0.052734375q 0.279296875 -0.052734375 0.5390625 -0.208984375q 0.259765625 -0.15625 0.4296875 -0.462890625q 0.169921875 -0.306640625 0.169921875 -0.818359375v -2.87890625h -0.69140625v 0.59375h -0.046875q -0.07421875 -0.15234375 -0.23828125 -0.314453125q -0.1640625 -0.162109375 -0.42578125 -0.271484375q -0.26171875 -0.109375 -0.6328125 -0.109375Z m 0.12109375 0.62109375q 0.390625 0 0.66015625 0.15234375q 0.26953125 0.15234375 0.41015625 0.396484375q 0.140625 0.244140625 0.140625 0.509765625v 0.60546875q -0.04296875 -0.05078125 -0.1875 -0.091796875q -0.14453125 -0.041015625 -0.330078125 -0.072265625q -0.185546875 -0.03125 -0.359375 -0.052734375q -0.173828125 -0.021484375 -0.275390625 -0.033203125q -0.25390625 -0.03125 -0.474609375 -0.107421875q -0.220703125 -0.076171875 -0.353515625 -0.22265625q -0.1328125 -0.146484375 -0.1328125 -0.396484375q 0 -0.2265625 0.1171875 -0.37890625q 0.1171875 -0.15234375 0.3203125 -0.23046875q 0.203125 -0.078125 0.46484375 -0.078125Z "/></symbol><symbol id="g52C35A770D904AA5C0E90317AD624B30" overflow="visible"><path d="M 0 0m 2.39453125 -0.09375q -0.59375 0 -1.041015625 0.28125q -0.447265625 0.28125 -0.697265625 0.7890625q -0.25 0.5078125 -0.25 1.1796875q 0 0.68359375 0.25 1.193359375q 0.25 0.509765625 0.697265625 0.791015625q 0.447265625 0.28125 1.041015625 0.28125q 0.31640625 0 0.59765625 -0.08203125q 0.28125 -0.08203125 0.513671875 -0.236328125q 0.232421875 -0.154296875 0.400390625 -0.37890625q 0.16796875 -0.224609375 0.2578125 -0.509765625l -0.67578125 -0.19140625q -0.046875 0.16796875 -0.14453125 0.30859375q -0.09765625 0.140625 -0.236328125 0.244140625q -0.138671875 0.103515625 -0.318359375 0.16015625q -0.1796875 0.056640625 -0.39453125 0.056640625q -0.4375 0 -0.71875 -0.228515625q -0.28125 -0.228515625 -0.41796875 -0.599609375q -0.13671875 -0.37109375 -0.13671875 -0.80859375q 0 -0.4296875 0.13671875 -0.798828125q 0.13671875 -0.369140625 0.41796875 -0.595703125q 0.28125 -0.2265625 0.71875 -0.2265625q 0.21875 0 0.40234375 0.05859375q 0.18359375 0.05859375 0.326171875 0.166015625q 0.142578125 0.107421875 0.240234375 0.255859375q 0.09765625 0.1484375 0.14453125 0.32421875l 0.671875 -0.19140625q -0.0859375 -0.29296875 -0.255859375 -0.521484375q -0.169921875 -0.228515625 -0.404296875 -0.390625q -0.234375 -0.162109375 -0.51953125 -0.24609375q -0.28515625 -0.083984375 -0.60546875 -0.083984375Z "/></symbol><symbol id="g12DA06A9E1184E378856FB009A6EF3C6" overflow="visible"><path d="M 0 0m 2.25390625 -0.09375q -0.54296875 0 -0.9609375 0.27734375q -0.41796875 0.27734375 -0.65234375 0.78515625q -0.234375 0.5078125 -0.234375 1.203125q 0 0.69140625 0.236328125 1.197265625q 0.236328125 0.505859375 0.654296875 0.779296875q 0.41796875 0.2734375 0.9609375 0.2734375q 0.42578125 0 0.67578125 -0.140625q 0.25 -0.140625 0.384765625 -0.318359375q 0.134765625 -0.177734375 0.205078125 -0.294921875h 0.0546875v 2.15234375h 0.703125v -5.8203125h -0.6796875v 0.67578125h -0.078125q -0.0703125 -0.12109375 -0.208984375 -0.302734375q -0.138671875 -0.181640625 -0.390625 -0.32421875q -0.251953125 -0.142578125 -0.669921875 -0.142578125Z m 0.10546875 0.62890625q 0.3984375 0 0.671875 0.208984375q 0.2734375 0.208984375 0.4140625 0.580078125q 0.140625 0.37109375 0.140625 0.85546875q 0 0.484375 -0.138671875 0.845703125q -0.138671875 0.361328125 -0.412109375 0.564453125q -0.2734375 0.203125 -0.67578125 0.203125q -0.4140625 0 -0.689453125 -0.21484375q -0.275390625 -0.21484375 -0.412109375 -0.580078125q -0.13671875 -0.365234375 -0.13671875 -0.818359375q 0 -0.45703125 0.138671875 -0.830078125q 0.138671875 -0.373046875 0.416015625 -0.59375q 0.27734375 -0.220703125 0.68359375 -0.220703125Z "/></symbol><symbol id="g69CAF62E43035DF64E1CC6A8A31513AD" overflow="visible"><path d="M 0 0m 2.39453125 -0.09375q -0.59375 0 -1.041015625 0.28125q -0.447265625 0.28125 -0.697265625 0.7890625q -0.25 0.5078125 -0.25 1.1796875q 0 0.68359375 0.25 1.193359375q 0.25 0.509765625 0.697265625 0.791015625q 0.447265625 0.28125 1.041015625 0.28125q 0.59765625 0 1.046875 -0.28125q 0.44921875 -0.28125 0.69921875 -0.791015625q 0.25 -0.509765625 0.25 -1.193359375q 0 -0.671875 -0.25 -1.1796875q -0.25 -0.5078125 -0.69921875 -0.7890625q -0.44921875 -0.28125 -1.046875 -0.28125Z m 0 0.62890625q 0.44140625 0 0.7265625 0.2265625q 0.28515625 0.2265625 0.421875 0.595703125q 0.13671875 0.369140625 0.13671875 0.798828125q 0 0.43359375 -0.13671875 0.806640625q -0.13671875 0.373046875 -0.421875 0.6015625q -0.28515625 0.228515625 -0.7265625 0.228515625q -0.4375 0 -0.71875 -0.228515625q -0.28125 -0.228515625 -0.41796875 -0.599609375q -0.13671875 -0.37109375 -0.13671875 -0.80859375q 0 -0.4296875 0.13671875 -0.798828125q 0.13671875 -0.369140625 0.41796875 -0.595703125q 0.28125 -0.2265625 0.71875 -0.2265625Z "/></symbol><symbol id="g3452BF2F17CEA502D79022914001D908" overflow="visible"><path d="M 0 0m 1.59765625 0l -1.32421875 4.3671875h 0.74609375l 0.53125 -1.90625q 0.109375 -0.390625 0.234375 -0.884765625q 0.125 -0.494140625 0.24609375 -1.119140625h -0.12109375q 0.1171875 0.59765625 0.23828125 1.09375q 0.12109375 0.49609375 0.234375 0.91015625l 0.5234375 1.90625h 0.75l 0.515625 -1.90625q 0.109375 -0.40234375 0.228515625 -0.896484375q 0.119140625 -0.494140625 0.236328125 -1.107421875h -0.125q 0.125 0.60546875 0.248046875 1.099609375q 0.123046875 0.494140625 0.236328125 0.904296875l 0.53125 1.90625h 0.74609375l -1.32421875 -4.3671875h -0.69921875l -0.56640625 1.9765625q -0.0859375 0.30078125 -0.16796875 0.61328125q -0.08203125 0.3125 -0.16015625 0.640625q -0.078125 0.328125 -0.16015625 0.66796875h 0.15625q -0.078125 -0.3359375 -0.158203125 -0.666015625q -0.080078125 -0.330078125 -0.162109375 -0.646484375q -0.08203125 -0.31640625 -0.16796875 -0.609375l -0.56640625 -1.9765625h -0.69921875Z "/></symbol><symbol id="g38A68BFEC8579EEFC4BD0B8C80952C18" overflow="visible"><path d="M 0 0m 0.6171875 0v 4.3671875h 0.68359375l 0.00390625 -0.9765625h -0.0546875q 0.08984375 0.35546875 0.283203125 0.587890625q 0.193359375 0.232421875 0.453125 0.349609375q 0.259765625 0.1171875 0.541015625 0.1171875q 0.4765625 0 0.771484375 -0.29296875q 0.294921875 -0.29296875 0.380859375 -0.76953125h -0.09375q 0.078125 0.328125 0.28515625 0.56640625q 0.20703125 0.23828125 0.501953125 0.3671875q 0.294921875 0.12890625 0.642578125 0.12890625q 0.37890625 0 0.69140625 -0.1640625q 0.3125 -0.1640625 0.498046875 -0.49609375q 0.185546875 -0.33203125 0.185546875 -0.83984375v -2.9453125h -0.703125v 2.92578125q 0 0.47265625 -0.265625 0.67578125q -0.265625 0.203125 -0.6171875 0.203125q -0.29296875 0 -0.505859375 -0.123046875q -0.212890625 -0.123046875 -0.328125 -0.337890625q -0.115234375 -0.21484375 -0.115234375 -0.4921875v -2.8515625h -0.703125v 2.99609375q 0 0.36328125 -0.2421875 0.5859375q -0.2421875 0.22265625 -0.61328125 0.22265625q -0.25390625 0 -0.478515625 -0.119140625q -0.224609375 -0.119140625 -0.361328125 -0.353515625q -0.13671875 -0.234375 -0.13671875 -0.58203125v -2.75h -0.703125Z "/></symbol><symbol id="gB75C56B328344F31B0144952C62FE3CE" overflow="visible"><path d="M 0 0m 0.6171875 0v 4.3671875h 0.703125v -4.3671875h -0.703125Z m 0.35546875 5.08203125q -0.19921875 0 -0.34375 0.13671875q -0.14453125 0.13671875 -0.14453125 0.328125q 0 0.1953125 0.14453125 0.330078125q 0.14453125 0.134765625 0.34375 0.134765625q 0.203125 0 0.34765625 -0.134765625q 0.14453125 -0.134765625 0.14453125 -0.330078125q 0 -0.19140625 -0.14453125 -0.328125q -0.14453125 -0.13671875 -0.34765625 -0.13671875Z "/></symbol><symbol id="g1F7E95E38E0E30A1E4EBDF873711F12F" overflow="visible"><path d="M 0 0m 0.6171875 -1.6328125v 6h 0.6796875v -0.69921875h 0.078125q 0.07421875 0.1171875 0.20703125 0.294921875q 0.1328125 0.177734375 0.3828125 0.318359375q 0.25 0.140625 0.67578125 0.140625q 0.546875 0 0.962890625 -0.2734375q 0.416015625 -0.2734375 0.65234375 -0.779296875q 0.236328125 -0.505859375 0.236328125 -1.197265625q 0 -0.6953125 -0.234375 -1.203125q -0.234375 -0.5078125 -0.650390625 -0.78515625q -0.416015625 -0.27734375 -0.962890625 -0.27734375q -0.4140625 0 -0.66796875 0.142578125q -0.25390625 0.142578125 -0.390625 0.32421875q -0.13671875 0.181640625 -0.2109375 0.302734375h -0.0546875v -2.30859375h -0.703125Z m 1.921875 2.16796875q 0.41015625 0 0.685546875 0.220703125q 0.275390625 0.220703125 0.4140625 0.59375q 0.138671875 0.373046875 0.138671875 0.830078125q 0 0.453125 -0.13671875 0.818359375q -0.13671875 0.365234375 -0.412109375 0.580078125q -0.275390625 0.21484375 -0.689453125 0.21484375q -0.40234375 0 -0.67578125 -0.203125q -0.2734375 -0.203125 -0.412109375 -0.564453125q -0.138671875 -0.361328125 -0.138671875 -0.845703125q 0 -0.484375 0.140625 -0.85546875q 0.140625 -0.37109375 0.416015625 -0.580078125q 0.275390625 -0.208984375 0.669921875 -0.208984375Z "/></symbol><symbol id="gE21994E7BCDC2C4B45B2250424F0AD37" overflow="visible"><path d="M 0 0m 2.453125 -0.09375q -0.6328125 0 -1.091796875 0.28125q -0.458984375 0.28125 -0.70703125 0.78515625q -0.248046875 0.50390625 -0.248046875 1.17578125q 0 0.671875 0.2421875 1.18359375q 0.2421875 0.51171875 0.685546875 0.80078125q 0.443359375 0.2890625 1.037109375 0.2890625q 0.34765625 0 0.685546875 -0.115234375q 0.337890625 -0.115234375 0.61328125 -0.37109375q 0.275390625 -0.255859375 0.439453125 -0.673828125q 0.1640625 -0.41796875 0.1640625 -1.0234375v -0.29296875h -3.390625v 0.59375h 3.01171875l -0.328125 -0.21875q 0 0.4296875 -0.134765625 0.763671875q -0.134765625 0.333984375 -0.400390625 0.5234375q -0.265625 0.189453125 -0.66015625 0.189453125q -0.39453125 0 -0.67578125 -0.193359375q -0.28125 -0.193359375 -0.4296875 -0.50390625q -0.1484375 -0.310546875 -0.1484375 -0.666015625v -0.39453125q 0 -0.484375 0.16796875 -0.822265625q 0.16796875 -0.337890625 0.470703125 -0.51171875q 0.302734375 -0.173828125 0.701171875 -0.173828125q 0.2578125 0 0.46875 0.07421875q 0.2109375 0.07421875 0.36328125 0.224609375q 0.15234375 0.150390625 0.234375 0.373046875l 0.6796875 -0.1875q -0.1015625 -0.328125 -0.34375 -0.578125q -0.2421875 -0.25 -0.599609375 -0.390625q -0.357421875 -0.140625 -0.806640625 -0.140625Z "/></symbol><symbol id="gC6D92AB3AFE648EB2C582C586993EECD" overflow="visible"><path d="M 0 0m 2.6484375 4.3671875v -0.6015625h -2.5703125v 0.6015625h 2.5703125Z m -1.7109375 -4.3671875v 4.94921875q 0 0.37890625 0.177734375 0.6328125q 0.177734375 0.25390625 0.462890625 0.3828125q 0.28515625 0.12890625 0.6015625 0.12890625q 0.25 0 0.4140625 -0.041015625q 0.1640625 -0.041015625 0.2421875 -0.076171875l -0.1953125 -0.6015625q -0.0546875 0.01953125 -0.142578125 0.04296875q -0.087890625 0.0234375 -0.236328125 0.0234375q -0.32421875 0 -0.47265625 -0.166015625q -0.1484375 -0.166015625 -0.1484375 -0.482421875v -4.79296875h -0.703125Z "/></symbol><symbol id="g2C278E93036D06FAB9EBD70DABCF6086" overflow="visible"><path d="M 0 0m 1.3203125 5.8203125v -5.8203125h -0.703125v 5.8203125h 0.703125Z "/></symbol><symbol id="gDEF6538C2A240F5DF9C7C6657A1063C9" overflow="visible"><path d="M 0 0m 1.15234375 -0.05078125q -0.21875 0 -0.373046875 0.154296875q -0.154296875 0.154296875 -0.154296875 0.373046875q 0 0.21875 0.154296875 0.373046875q 0.154296875 0.154296875 0.373046875 0.154296875q 0.21875 0 0.373046875 -0.154296875q 0.154296875 -0.154296875 0.154296875 -0.373046875q 0 -0.21875 -0.154296875 -0.373046875q -0.154296875 -0.154296875 -0.373046875 -0.154296875Z "/></symbol><symbol id="gE42B39A73D718E73B3126099FBB91AD9" overflow="visible"><path d="M 0 0m 0.486 -1.845v 6.219h 1.377v -0.306q 0.225 0.189 0.5175 0.2925q 0.2925 0.1035 0.6255 0.1035q 0.621 0 1.1025 -0.297q 0.4815 -0.297 0.756 -0.8145q 0.2745 -0.5175 0.2745 -1.1655q 0 -0.657 -0.2745 -1.17q -0.2745 -0.513 -0.756 -0.81q -0.4815 -0.297 -1.1025 -0.297q -0.342 0 -0.639 0.1035q -0.297 0.1035 -0.522 0.2835v -2.142h -1.359Z m 2.277 2.997q 0.432 0 0.7065 0.2925q 0.2745 0.2925 0.2745 0.7425q 0 0.459 -0.2745 0.747q -0.2745 0.288 -0.7065 0.288q -0.441 0 -0.711 -0.288q -0.27 -0.288 -0.27 -0.747q 0 -0.459 0.27 -0.747q 0.27 -0.288 0.711 -0.288Z "/></symbol><symbol id="gDBEB6EDE3B9D282FF6767DB74AA2C36E" overflow="visible"><path d="M 0 0m 2.592 -0.099q -0.675 0 -1.2195 0.3015q -0.5445 0.3015 -0.8595 0.8235q -0.315 0.522 -0.315 1.17q 0 0.648 0.315 1.161q 0.315 0.513 0.855 0.8145q 0.54 0.3015 1.224 0.3015q 0.675 0 1.2195 -0.297q 0.5445 -0.297 0.8595 -0.8145q 0.315 -0.5175 0.315 -1.1655q 0 -0.648 -0.315 -1.17q -0.315 -0.522 -0.855 -0.8235q -0.54 -0.3015 -1.224 -0.3015Z m 0 1.251q 0.441 0 0.7155 0.288q 0.2745 0.288 0.2745 0.756q 0 0.459 -0.279 0.7425q -0.279 0.2835 -0.711 0.2835q -0.441 0 -0.7155 -0.288q -0.2745 -0.288 -0.2745 -0.747q 0 -0.459 0.2745 -0.747q 0.2745 -0.288 0.7155 -0.288Z "/></symbol><symbol id="g2CAFB9811E7331340C56E20F6C83285C" overflow="visible"><path d="M 0 0m 0.486 0v 4.374h 1.377v -0.333q 0.432 0.423 1.125 0.423q 0.621 0 0.972 -0.387l -0.819 -1.035q -0.09 0.099 -0.2205 0.153q -0.1305 0.054 -0.3105 0.054q -0.342 0 -0.5445 -0.2115q -0.2025 -0.2115 -0.2025 -0.6345v -2.403h -1.377Z "/></symbol><symbol id="g5BAB451FAB969220E764098B9779DE1D" overflow="visible"><path d="M 0 0m 1.107 0v 3.204h -0.99v 1.17h 0.99v 1.809h 1.377v -1.809h 0.99v -1.17h -0.99v -3.204h -1.377Z "/></symbol><symbol id="gD5BE90EEE975DB6F9817B1948F3B8086" overflow="visible"><path d="M 0 0m 1.404 0v 5.157h -1.224v 1.197h 2.628v -6.354h -1.404Z "/></symbol><symbol id="gE79D13C4C16A8D320ADB86E55BFA4F99" overflow="visible"><path d="M 0 0m 0.216 0v 0.792l 2.439 2.52q 0.333 0.342 0.477 0.5895q 0.144 0.2475 0.144 0.5175q 0 0.369 -0.2385 0.5805q -0.2385 0.2115 -0.6255 0.2115q -0.378 0 -0.6795 -0.207q -0.3015 -0.207 -0.5805 -0.657l -0.945 0.819q 0.765 1.287 2.304 1.287q 0.648 0 1.134 -0.2475q 0.486 -0.2475 0.7515 -0.693q 0.2655 -0.4455 0.2655 -1.0485q 0 -0.387 -0.099 -0.702q -0.099 -0.315 -0.3195 -0.6255q -0.2205 -0.3105 -0.5895 -0.6795l -1.26 -1.251h 2.394v -1.206h -4.572Z "/></symbol><symbol id="g4685935FB1A93C86806F8337515A8854" overflow="visible"><path d="M 0 0m 2.38671875 -1.7265625q -0.484375 0 -0.837890625 0.123046875q -0.353515625 0.123046875 -0.587890625 0.326171875q -0.234375 0.203125 -0.37109375 0.44140625l 0.5703125 0.3671875q 0.09375 -0.125 0.232421875 -0.27734375q 0.138671875 -0.15234375 0.375 -0.259765625q 0.236328125 -0.107421875 0.619140625 -0.107421875q 0.5234375 0 0.861328125 0.25q 0.337890625 0.25 0.337890625 0.7890625v 0.875h -0.06640625q -0.07421875 -0.125 -0.208984375 -0.296875q -0.134765625 -0.171875 -0.38671875 -0.302734375q -0.251953125 -0.130859375 -0.673828125 -0.130859375q -0.5234375 0 -0.94140625 0.248046875q -0.41796875 0.248046875 -0.66015625 0.724609375q -0.2421875 0.4765625 -0.2421875 1.16015625q 0 0.67578125 0.23828125 1.173828125q 0.23828125 0.498046875 0.658203125 0.771484375q 0.419921875 0.2734375 0.962890625 0.2734375q 0.421875 0 0.673828125 -0.138671875q 0.251953125 -0.138671875 0.388671875 -0.318359375q 0.13671875 -0.1796875 0.2109375 -0.296875h 0.06640625v 0.69921875h 0.68359375v -4.48046875q 0 -0.5625 -0.25390625 -0.919921875q -0.25390625 -0.357421875 -0.685546875 -0.525390625q -0.431640625 -0.16796875 -0.962890625 -0.16796875Z m -0.01953125 2.421875q 0.3984375 0 0.671875 0.181640625q 0.2734375 0.181640625 0.4140625 0.5234375q 0.140625 0.341796875 0.140625 0.818359375q 0 0.46484375 -0.138671875 0.818359375q -0.138671875 0.353515625 -0.412109375 0.5546875q -0.2734375 0.201171875 -0.67578125 0.201171875q -0.4140625 0 -0.69140625 -0.212890625q -0.27734375 -0.212890625 -0.416015625 -0.568359375q -0.138671875 -0.35546875 -0.138671875 -0.79296875q 0 -0.44921875 0.140625 -0.79296875q 0.140625 -0.34375 0.41796875 -0.537109375q 0.27734375 -0.193359375 0.6875 -0.193359375Z "/></symbol><symbol id="g2480BEF54D6C408E5BDED6C3DAA3C72A" overflow="visible"><path d="M 0 0m 3.546 6.309c -2.151 0 -2.997 -2.241 -2.997 -3.897c 0 -1.638 0.882 -2.52 2.205 -2.52c 0.81 0 1.422 0.333 1.827 0.675l -0.378 0.576c -0.378 -0.27 -0.792 -0.531 -1.395 -0.531c -0.792 0 -1.368 0.486 -1.368 1.728c 0 1.395 0.531 3.267 2.142 3.267c 0.423 0 0.774 -0.126 1.143 -0.414l 0.486 0.477c -0.432 0.405 -0.945 0.639 -1.665 0.639Z "/></symbol><symbol id="g63DE33BE731DB4EDC210ADBA594A5C1" overflow="visible"><path d="M 0 0m 2.06712 3.49272c -1.2636 0 -1.73016 -1.28304 -1.73016 -2.17728c 0 -0.8748 0.46656 -1.3932 1.27656 -1.3932c 0.37584 0 0.73224 0.11664 1.0692 0.3564l -0.23976 0.41472c -0.27216 -0.16848 -0.49248 -0.26568 -0.79056 -0.26568c -0.43416 0 -0.69336 0.24624 -0.69336 0.8424c 0 0.70632 0.25272 1.73016 1.11456 1.73016c 0.26568 0 0.46008 -0.07128 0.66744 -0.25272l 0.31752 0.36936c -0.27864 0.26568 -0.60912 0.37584 -0.99144 0.37584Z "/></symbol><symbol id="g4DAC3F1FC283D7BC71B723D565EB7830" overflow="visible"><path d="M 0 0m 5.458984375 0h -1.416015625l -0.893554688 2.353515625q -0.170898438 0.439453125 -0.395507813 1.171875q -0.190429688 -0.625 -0.385742188 -1.147460938l -0.888671875 -2.377929688h -1.40625l 1.9921875 5.180664063l -0.756835938 1.977539063h 1.352539063l 0.776367188 -1.977539063l 2.021484375 -5.180664063Z "/></symbol><symbol id="g6FE517F4A286FD5C2CCDF40F7556DA68" overflow="visible"><path d="M 0 0m 0.03 -0.55l 2.45 8.1h 1.33l -2.45 -8.1h -1.33Z "/></symbol><symbol id="gC3F77B26CC03E68E47A245939E928777" overflow="visible"><path d="M 0 0m 0.21 1.57v 0.88l 2.32 4.61h 1.71l -2.14 -4.16h 1.44v 1.47h 1.54v -1.47h 0.79v -1.33h -0.79v -1.57h -1.54v 1.57h -3.33Z "/></symbol><symbol id="gBF7FDF06787DED2E59FF5E319C182CA3" overflow="visible"><path d="M 0 0m 0.54 0v 4.86h 1.53v -0.37q 0.48 0.47 1.25 0.47q 0.69 0 1.08 -0.43l -0.91 -1.15q -0.1 0.11 -0.245 0.17q -0.145 0.06 -0.345 0.06q -0.38 0 -0.605 -0.235q -0.225 -0.235 -0.225 -0.705v -2.67h -1.53Z "/></symbol><symbol id="g6E40E45EC46BCD15D7662F146E1ED4A0" overflow="visible"><path d="M 0 0m 2.94 -0.11q -0.79 0 -1.405 0.325q -0.615 0.325 -0.965 0.9q -0.35 0.575 -0.35 1.315q 0 0.73 0.345 1.3q 0.345 0.57 0.935 0.905q 0.59 0.335 1.33 0.335q 0.71 0 1.265 -0.315q 0.555 -0.315 0.87 -0.86q 0.315 -0.545 0.315 -1.255q 0 -0.27 -0.07 -0.61l -3.48 -0.01q 0.12 -0.41 0.43 -0.63q 0.31 -0.22 0.77 -0.22q 0.73 0 1.16 0.5l 0.84 -0.84q -0.36 -0.42 -0.87 -0.63q -0.51 -0.21 -1.12 -0.21Z m -0.1 3.91q -0.42 0 -0.71 -0.22q -0.29 -0.22 -0.4 -0.61l 2.12 0.01q -0.19 0.82 -1.01 0.82Z "/></symbol><symbol id="g3E0662E8FCFBA03006F3509641C62D92" overflow="visible"><path d="M 0 0m 2.31 -0.12q -0.65 0 -1.25 0.24q -0.6 0.24 -0.97 0.66l 0.87 0.88q 0.5 -0.55 1.29 -0.55q 0.56 0 0.56 0.3q 0 0.18 -0.175 0.275q -0.175 0.095 -0.445 0.165q -0.27 0.07 -0.57 0.165q -0.3 0.095 -0.57 0.255q -0.27 0.16 -0.44 0.44q -0.17 0.28 -0.17 0.73q 0 0.69 0.525 1.125q 0.525 0.435 1.425 0.435q 0.62 0 1.145 -0.215q 0.525 -0.215 0.855 -0.635l -0.87 -0.88q -0.23 0.27 -0.515 0.38q -0.285 0.11 -0.555 0.11q -0.52 0 -0.52 -0.29q 0 -0.16 0.17 -0.245q 0.17 -0.085 0.44 -0.16q 0.27 -0.075 0.57 -0.17q 0.3 -0.095 0.565 -0.265q 0.265 -0.17 0.44 -0.46q 0.175 -0.29 0.175 -0.74q 0 -0.72 -0.535 -1.135q -0.535 -0.415 -1.445 -0.415Z "/></symbol><symbol id="g6E9D12C67FF62FBD5C44C9CF47FC0290" overflow="visible"><path d="M 0 0m 2.88 -0.11q -0.75 0 -1.355 0.335q -0.605 0.335 -0.955 0.915q -0.35 0.58 -0.35 1.3q 0 0.72 0.35 1.29q 0.35 0.57 0.95 0.905q 0.6 0.335 1.36 0.335q 0.75 0 1.355 -0.33q 0.605 -0.33 0.955 -0.905q 0.35 -0.575 0.35 -1.295q 0 -0.72 -0.35 -1.3q -0.35 -0.58 -0.95 -0.915q -0.6 -0.335 -1.36 -0.335Z m 0 1.39q 0.49 0 0.795 0.32q 0.305 0.32 0.305 0.84q 0 0.51 -0.31 0.825q -0.31 0.315 -0.79 0.315q -0.49 0 -0.795 -0.32q -0.305 -0.32 -0.305 -0.83q 0 -0.51 0.305 -0.83q 0.305 -0.32 0.795 -0.32Z "/></symbol><symbol id="gF4CEADB9C1A957C12DE83E45BE14A969" overflow="visible"><path d="M 0 0m 0.54 0v 4.86h 1.53v -0.39q 0.54 0.49 1.36 0.49q 0.53 0 0.95 -0.255q 0.42 -0.255 0.66 -0.675q 0.24 -0.42 0.24 -0.92v -3.11h -1.53v 2.77q 0 0.38 -0.235 0.615q -0.235 0.235 -0.595 0.235q -0.37 0 -0.61 -0.235q -0.24 -0.235 -0.24 -0.615v -2.77h -1.53Z "/></symbol><symbol id="g4C6A0F1FD2A33AE2B0E50C3AADA134D1" overflow="visible"><path d="M 0 0m 2.57 -0.1q -0.67 0 -1.195 0.33q -0.525 0.33 -0.83 0.9q -0.305 0.57 -0.305 1.3q 0 0.72 0.305 1.295q 0.305 0.575 0.83 0.905q 0.525 0.33 1.195 0.33q 0.4 0 0.745 -0.135q 0.345 -0.135 0.595 -0.365v 0.4h 1.5v -4.86h -1.5v 0.4q -0.25 -0.24 -0.595 -0.37q -0.345 -0.13 -0.745 -0.13Z m 0.31 1.38q 0.49 0 0.79 0.32q 0.3 0.32 0.3 0.83q 0 0.51 -0.3 0.83q -0.3 0.32 -0.78 0.32q -0.48 0 -0.79 -0.325q -0.31 -0.325 -0.31 -0.825q 0 -0.51 0.305 -0.83q 0.305 -0.32 0.785 -0.32Z "/></symbol><symbol id="g5599A8B46FC17EDE5ACC5E49FC67C728" overflow="visible"><path d="M 0 0m 1.23 0v 3.56h -1.1v 1.3h 1.1v 2.01h 1.53v -2.01h 1.1v -1.3h -1.1v -3.56h -1.53Z "/></symbol><symbol id="gB4ED3957CB20E1F8594F42E130F18C13" overflow="visible"><path d="M 0 0m 1.848 -0.096q -0.52 0 -1 0.192q -0.48 0.192 -0.776 0.528l 0.696 0.704q 0.4 -0.44 1.032 -0.44q 0.448 0 0.448 0.24q 0 0.144 -0.14 0.22q -0.14 0.076 -0.356 0.132q -0.216 0.056 -0.456 0.132q -0.24 0.076 -0.456 0.204q -0.216 0.128 -0.352 0.352q -0.136 0.224 -0.136 0.584q 0 0.552 0.42 0.9q 0.42 0.348 1.14 0.348q 0.496 0 0.916 -0.172q 0.42 -0.172 0.684 -0.508l -0.696 -0.704q -0.184 0.216 -0.412 0.304q -0.228 0.088 -0.444 0.088q -0.416 0 -0.416 -0.232q 0 -0.128 0.136 -0.196q 0.136 -0.068 0.352 -0.128q 0.216 -0.06 0.456 -0.136q 0.24 -0.076 0.452 -0.212q 0.212 -0.136 0.352 -0.368q 0.14 -0.232 0.14 -0.592q 0 -0.576 -0.428 -0.908q -0.428 -0.332 -1.156 -0.332Z "/></symbol><symbol id="g23C175B8F2A8B34DB816B44EC29FDECF" overflow="visible"><path d="M 0 0m 0.432 0v 5.808h 1.224v -2.208q 0.416 0.368 1.048 0.368q 0.448 0 0.792 -0.188q 0.344 -0.188 0.536 -0.524q 0.192 -0.336 0.192 -0.768v -2.488h -1.224v 2.216q 0 0.304 -0.188 0.492q -0.188 0.188 -0.476 0.188q -0.296 0 -0.488 -0.188q -0.192 -0.188 -0.192 -0.492v -2.216h -1.224Z "/></symbol><symbol id="gF46AA4ED2CC389306819851047BAC151" overflow="visible"><path d="M 0 0m 2.304 -0.088q -0.6 0 -1.084 0.268q -0.484 0.268 -0.764 0.732q -0.28 0.464 -0.28 1.04q 0 0.576 0.28 1.032q 0.28 0.456 0.76 0.724q 0.48 0.268 1.088 0.268q 0.6 0 1.084 -0.264q 0.484 -0.264 0.764 -0.724q 0.28 -0.46 0.28 -1.036q 0 -0.576 -0.28 -1.04q -0.28 -0.464 -0.76 -0.732q -0.48 -0.268 -1.088 -0.268Z m 0 1.112q 0.392 0 0.636 0.256q 0.244 0.256 0.244 0.672q 0 0.408 -0.248 0.66q -0.248 0.252 -0.632 0.252q -0.392 0 -0.636 -0.256q -0.244 -0.256 -0.244 -0.664q 0 -0.408 0.244 -0.664q 0.244 -0.256 0.636 -0.256Z "/></symbol><symbol id="gAF4AAF1F1363981221589537A6AE81AF" overflow="visible"><path d="M 0 0m 0.432 0v 3.888h 1.224v -0.296q 0.384 0.376 1 0.376q 0.552 0 0.864 -0.344l -0.728 -0.92q -0.08 0.088 -0.196 0.136q -0.116 0.048 -0.276 0.048q -0.304 0 -0.484 -0.188q -0.18 -0.188 -0.18 -0.564v -2.136h -1.224Z "/></symbol><symbol id="g32EE2AB677B5B70F6362CEE545A5A62C" overflow="visible"><path d="M 0 0m 0.984 0v 2.848h -0.88v 1.04h 0.88v 1.608h 1.224v -1.608h 0.88v -1.04h -0.88v -2.848h -1.224Z "/></symbol></defs></svg>
