<?xml version="1.0" encoding="UTF-8"?>
<svg xmlns="http://www.w3.org/2000/svg" viewBox="0 0 410 100" width="410" height="100" role="img" aria-label="QPDK">
  <title>QPDK</title>
  <line x1="42" y1="22" x2="42" y2="78" stroke="#0E1116" stroke-width="8" stroke-linecap="round"></line>
  <line x1="58" y1="22" x2="58" y2="78" stroke="#0E1116" stroke-width="8" stroke-linecap="round"></line>
  <path d="M66 50 L96 50 L96 22 L130 22 L130 78 L164 78 L164 50 L194 50" fill="none" stroke="#2A6FB5" stroke-width="8" stroke-linecap="square" stroke-linejoin="miter"></path>
  <g transform="translate(212.8 18.1) scale(0.34)" fill="#0E1116">
    <path d="M81 162.40L81 162.40Q65.20 162.40 51.60 156.80Q38 151.20 27.90 141.20Q17.80 131.20 12.10 117.90Q6.40 104.60 6.40 89.20L6.40 89.20Q6.40 73.80 12 60.50Q17.60 47.20 27.70 37.30Q37.80 27.40 51.30 21.90Q64.80 16.40 80.60 16.40L80.60 16.40Q96.40 16.40 109.90 21.90Q123.40 27.40 133.50 37.30Q143.60 47.20 149.30 60.50Q155 73.80 155 89.40L155 89.40Q155 101.60 151.40 112.50Q147.80 123.40 141.40 132.40L141.40 132.40L162.20 153L144 171.20L122.80 150.20Q114 156 103.40 159.20Q92.80 162.40 81 162.40ZM80.60 133.80L80.60 133.80Q92.20 133.80 101.40 128.80L101.40 128.80L78 105.20L96.20 87L118.80 109.80Q122.80 100.60 122.80 89.20L122.80 89.20Q122.80 76 117.50 66Q112.20 56 102.70 50.50Q93.20 45 80.60 45L80.60 45Q68 45 58.60 50.50Q49.20 56 43.90 66Q38.60 76 38.60 89.20L38.60 89.20Q38.60 102.60 43.90 112.60Q49.20 122.60 58.60 128.20Q68 133.80 80.60 133.80ZM210 160L178.60 160L178.60 18.80L237.60 18.80Q251 18.80 261.80 24.30Q272.60 29.80 278.90 39.80Q285.20 49.80 285.20 63.60L285.20 63.60Q285.20 77.60 278.90 87.60Q272.60 97.60 261.80 103.10Q251 108.60 237.60 108.60L237.60 108.60L210 108.60L210 160ZM233 43.20L233 43.20L210 43.20L210 84.20L233 84.20Q241.80 84.20 247.90 78.80Q254 73.40 254 63.60L254 63.60Q254 54 247.90 48.60Q241.80 43.20 233 43.20ZM359.80 160L302.80 160L302.80 18.80L359.40 18.80Q375.20 18.80 388.80 24Q402.40 29.20 412.40 38.60Q422.40 48 428.00 60.90Q433.60 73.80 433.60 89.40L433.60 89.40Q433.60 104.80 428.00 117.80Q422.40 130.80 412.40 140.20Q402.40 149.60 389.00 154.80Q375.60 160 359.80 160L359.80 160ZM359.00 46.20L359.00 46.20L334.20 46.20L334.20 132.40L359.00 132.40Q378.20 132.40 389.80 121Q401.40 109.60 401.40 89.20L401.40 89.20Q401.40 69 389.70 57.60Q378.00 46.20 359.00 46.20ZM485.00 160L453.60 160L453.60 18.80L485.00 18.80L485.00 82.40L537.20 18.80L576 18.80L518.80 86L578 160L539 160L485.00 90.60L485.00 160Z"></path>
  </g>
</svg>
